<?xml version="1.0" standalone="no"?>
<!DOCTYPE svg PUBLIC "-//W3C//DTD SVG 20010904//EN"
 "http://www.w3.org/TR/2001/REC-SVG-20010904/DTD/svg10.dtd">
<svg version="1.0" xmlns="http://www.w3.org/2000/svg"
 width="559.000000pt" height="897.000000pt" viewBox="0 0 559.000000 897.000000"
 preserveAspectRatio="xMidYMid meet">
<metadata>
Created by potrace 1.16, written by Peter Selinger 2001-2019
</metadata>
<g transform="translate(0.000000,897.000000) scale(0.100000,-0.100000)"
fill="#000000" stroke="none">
<path d="M2930 8959 c-244 -11 -446 -48 -658 -120 -612 -208 -1129 -721 -1323
-1310 -178 -541 -105 -1123 206 -1656 254 -434 759 -949 1667 -1699 451 -373
600 -505 803 -708 215 -216 275 -292 350 -448 66 -138 80 -199 79 -353 -1
-107 -5 -141 -22 -189 -66 -180 -215 -347 -404 -450 -88 -49 -207 -91 -308
-110 -94 -18 -279 -21 -366 -5 -401 71 -763 376 -1088 916 -21 35 -43 63 -50
63 -7 0 -32 -13 -57 -29 -76 -49 -229 -141 -234 -141 -3 0 -35 -19 -72 -43
-76 -49 -260 -159 -283 -170 -8 -4 -56 -33 -107 -65 -90 -55 -331 -202 -416
-252 -23 -14 -61 -36 -85 -50 -23 -14 -42 -30 -42 -35 0 -14 136 -254 206
-362 138 -214 337 -458 496 -608 200 -189 384 -317 623 -435 247 -122 485
-196 775 -241 172 -27 609 -37 799 -19 605 58 1101 274 1497 652 297 285 500
627 599 1013 61 237 70 319 70 625 0 243 -3 290 -23 403 -84 467 -268 823
-647 1257 -192 218 -401 409 -1095 995 -842 712 -1216 1057 -1327 1227 -150
230 -142 470 22 646 141 153 312 222 548 222 142 0 239 -18 367 -69 273 -109
530 -328 800 -678 35 -46 67 -83 72 -83 6 0 1012 881 1136 995 10 9 -9 35 -90
126 -399 445 -754 739 -1106 917 -314 159 -659 255 -962 268 -63 2 -135 6
-160 7 -25 2 -110 0 -190 -4z"/>
</g>
</svg>
